<svg width="610" height="46" viewBox="0 0 610 46" fill="none" xmlns="http://www.w3.org/2000/svg">
<g opacity="0.75">
<path d="M1 19.3152L25.0647 10.6576L49.2753 2L73.4129 10.6576L97.5506 19.3152" stroke="#6385FF" stroke-width="2" stroke-miterlimit="10"/>
<path d="M97.5506 19.3152L121.688 10.6576L145.826 2L169.964 10.6576L194.101 19.3152" stroke="#6385FF" stroke-width="2" stroke-miterlimit="10"/>
<path d="M194.101 19.3152L218.239 10.6576L242.377 2L266.587 10.6576L290.725 19.3152" stroke="#6385FF" stroke-width="2" stroke-miterlimit="10"/>
<path d="M290.725 19.3152L314.862 10.6576L339 2L363.138 10.6576L387.275 19.3152" stroke="#6385FF" stroke-width="2" stroke-miterlimit="10"/>
<path d="M387.275 19.3152L411.413 10.6576L435.551 2L459.688 10.6576L483.826 19.3152" stroke="#6385FF" stroke-width="2" stroke-miterlimit="10"/>
<path d="M483.826 19.3152L507.964 10.6576L532.174 2L556.312 10.6576L580.449 19.3152" stroke="#6385FF" stroke-width="2" stroke-miterlimit="10"/>
<path d="M580.449 19.3152L604.587 10.6576L628.725 2L652.862 10.6576L677 19.3152" stroke="#6385FF" stroke-width="2" stroke-miterlimit="10"/>
<path d="M1 46.0001L25.0647 37.3424L49.2753 28.6848L73.4129 37.3424L97.5506 46.0001" stroke="#6385FF" stroke-width="2" stroke-miterlimit="10"/>
<path d="M97.5506 46.0001L121.688 37.3424L145.826 28.6848L169.964 37.3424L194.101 46.0001" stroke="#6385FF" stroke-width="2" stroke-miterlimit="10"/>
<path d="M194.101 46.0001L218.239 37.3424L242.377 28.6848L266.587 37.3424L290.725 46.0001" stroke="#6385FF" stroke-width="2" stroke-miterlimit="10"/>
<path d="M290.725 46.0001L314.862 37.3424L339 28.6848L363.138 37.3424L387.275 46.0001" stroke="#6385FF" stroke-width="2" stroke-miterlimit="10"/>
<path d="M387.275 46.0001L411.413 37.3424L435.551 28.6848L459.688 37.3424L483.826 46.0001" stroke="#6385FF" stroke-width="2" stroke-miterlimit="10"/>
<path d="M483.826 46.0001L507.964 37.3424L532.174 28.6848L556.312 37.3424L580.449 46.0001" stroke="#6385FF" stroke-width="2" stroke-miterlimit="10"/>
<path d="M580.449 46.0001L604.587 37.3424L628.725 28.6848L652.862 37.3424L677 46.0001" stroke="#6385FF" stroke-width="2" stroke-miterlimit="10"/>
</g>
</svg>
