<svg width="348" height="24" viewBox="0 0 348 24" fill="none" xmlns="http://www.w3.org/2000/svg">
<path d="M1 10.6576L13.3172 6.32881L25.7089 2L38.0634 6.32881L50.4179 10.6576" stroke="#6385FF" stroke-width="2" stroke-miterlimit="10"/>
<path d="M50.4179 10.6576L62.7724 6.32881L75.1269 2L87.4813 6.32881L99.8358 10.6576" stroke="#6385FF" stroke-width="2" stroke-miterlimit="10"/>
<path d="M99.8358 10.6576L112.19 6.32881L124.545 2L136.937 6.32881L149.291 10.6576" stroke="#6385FF" stroke-width="2" stroke-miterlimit="10"/>
<path d="M149.291 10.6576L161.645 6.32881L174 2L186.354 6.32881L198.709 10.6576" stroke="#6385FF" stroke-width="2" stroke-miterlimit="10"/>
<path d="M198.709 10.6576L211.063 6.32881L223.418 2L235.772 6.32881L248.127 10.6576" stroke="#6385FF" stroke-width="2" stroke-miterlimit="10"/>
<path d="M248.127 10.6576L260.481 6.32881L272.873 2L285.228 6.32881L297.582 10.6576" stroke="#6385FF" stroke-width="2" stroke-miterlimit="10"/>
<path d="M297.582 10.6576L309.937 6.32881L322.291 2L334.645 6.32881L347 10.6576" stroke="#6385FF" stroke-width="2" stroke-miterlimit="10"/>
<path d="M1 21.3152L13.3172 16.9864L25.7089 12.6576L38.0634 16.9864L50.4179 21.3152" stroke="#6385FF" stroke-width="2" stroke-miterlimit="10"/>
<path d="M50.4179 21.3152L62.7724 16.9864L75.1269 12.6576L87.4813 16.9864L99.8358 21.3152" stroke="#6385FF" stroke-width="2" stroke-miterlimit="10"/>
<path d="M99.8358 21.3152L112.19 16.9864L124.545 12.6576L136.937 16.9864L149.291 21.3152" stroke="#6385FF" stroke-width="2" stroke-miterlimit="10"/>
<path d="M149.291 21.3152L161.645 16.9864L174 12.6576L186.354 16.9864L198.709 21.3152" stroke="#6385FF" stroke-width="2" stroke-miterlimit="10"/>
<path d="M198.709 21.3152L211.063 16.9864L223.418 12.6576L235.772 16.9864L248.127 21.3152" stroke="#6385FF" stroke-width="2" stroke-miterlimit="10"/>
<path d="M248.127 21.3152L260.481 16.9864L272.873 12.6576L285.228 16.9864L297.582 21.3152" stroke="#6385FF" stroke-width="2" stroke-miterlimit="10"/>
<path d="M297.582 21.3152L309.937 16.9864L322.291 12.6576L334.645 16.9864L347 21.3152" stroke="#6385FF" stroke-width="2" stroke-miterlimit="10"/>
</svg>
