<svg width="294" height="64" viewBox="0 0 294 64" fill="none" xmlns="http://www.w3.org/2000/svg">
<g clip-path="url(#clip0_916_840)">
<path d="M1.19452 26.2321L11.5678 14.317L22.0039 2.40198L32.4086 14.317L42.8133 26.2321" stroke="white" stroke-width="2" stroke-miterlimit="10"/>
<path d="M42.8133 26.2321L53.218 14.317L63.6227 2.40198L74.0274 14.317L84.4321 26.2321" stroke="white" stroke-width="2" stroke-miterlimit="10"/>
<path d="M84.432 26.2321L94.8367 14.317L105.241 2.40198L115.678 14.317L126.082 26.2321" stroke="white" stroke-width="2" stroke-miterlimit="10"/>
<path d="M126.082 26.2321L136.487 14.317L146.892 2.40198L157.296 14.317L167.701 26.2321" stroke="white" stroke-width="2" stroke-miterlimit="10"/>
<path d="M167.701 26.2321L178.106 14.317L188.51 2.40198L198.915 14.317L209.32 26.2321" stroke="white" stroke-width="2" stroke-miterlimit="10"/>
<path d="M209.32 26.2321L219.724 14.317L230.161 2.40198L240.565 14.317L250.97 26.2321" stroke="white" stroke-width="2" stroke-miterlimit="10"/>
<path d="M250.97 26.2321L261.375 14.317L271.779 2.40198L282.184 14.317L292.589 26.2321" stroke="white" stroke-width="2" stroke-miterlimit="10"/>
<path d="M1.19452 62.957L11.5678 51.042L22.0039 39.1269L32.4086 51.042L42.8133 62.957" stroke="white" stroke-width="2" stroke-miterlimit="10"/>
<path d="M42.8133 62.957L53.218 51.042L63.6227 39.1269L74.0274 51.042L84.4321 62.957" stroke="white" stroke-width="2" stroke-miterlimit="10"/>
<path d="M84.432 62.957L94.8367 51.042L105.241 39.1269L115.678 51.042L126.082 62.957" stroke="white" stroke-width="2" stroke-miterlimit="10"/>
<path d="M126.082 62.957L136.487 51.042L146.892 39.1269L157.296 51.042L167.701 62.957" stroke="white" stroke-width="2" stroke-miterlimit="10"/>
<path d="M167.701 62.957L178.106 51.042L188.51 39.1269L198.915 51.042L209.32 62.957" stroke="white" stroke-width="2" stroke-miterlimit="10"/>
<path d="M209.32 62.957L219.724 51.042L230.161 39.1269L240.565 51.042L250.97 62.957" stroke="white" stroke-width="2" stroke-miterlimit="10"/>
<path d="M250.97 62.957L261.375 51.042L271.779 39.1269L282.184 51.042L292.589 62.957" stroke="white" stroke-width="2" stroke-miterlimit="10"/>
</g>
<defs>
<clipPath id="clip0_916_840">
<rect width="293.783" height="64" fill="white"/>
</clipPath>
</defs>
</svg>
